<?xml version="1.0" encoding="UTF-8" standalone="no"?>
<svg
   viewBox="356.91891891891896 479.0625 479.72972972972985 517.3875"
   overflow="visible"
   width="479.72972972972985px"
   height="517.3875px"
   version="1.1"
   id="svg1"
   sodipodi:docname="Open Peeps - Avatar.svg"
   inkscape:version="1.3.2 (091e20e, 2023-11-25, custom)"
   xmlns:inkscape="http://www.inkscape.org/namespaces/inkscape"
   xmlns:sodipodi="http://sodipodi.sourceforge.net/DTD/sodipodi-0.dtd"
   xmlns="http://www.w3.org/2000/svg"
   xmlns:svg="http://www.w3.org/2000/svg">
  <defs
     id="defs1" />
  <sodipodi:namedview
     id="namedview1"
     pagecolor="#ffffff"
     bordercolor="#000000"
     borderopacity="0.25"
     inkscape:showpageshadow="2"
     inkscape:pageopacity="0.0"
     inkscape:pagecheckerboard="0"
     inkscape:deskcolor="#d1d1d1"
     inkscape:zoom="0.80887148"
     inkscape:cx="38.943146"
     inkscape:cy="301.0367"
     inkscape:window-width="1920"
     inkscape:window-height="1051"
     inkscape:window-x="-9"
     inkscape:window-y="-9"
     inkscape:window-maximized="1"
     inkscape:current-layer="Master/Character/Avatar" />
  <g
     id="Master/Character/Avatar"
     stroke="none"
     stroke-width="1"
     fill="none"
     fill-rule="evenodd">
    <g
       id="g1">
      <g
         id="Head"
         transform="translate(332.000000, 483.000000) scale(0.9978902953586498 1)">
        <path
           d="m 385.41465,173.22156 c -3.861,-23.35914 8.81101,-28.20574 0,-50.41064 -19.582,-41.143608 -72.947,-39.370848 -112.107,-42.534282 -43.67799,-1.673997 -87.886,4.092213 -128.152,21.598352 -9.618,4.181 -18.869,9.09824 -27.73699,14.68488 -7.66801,4.83145 -6.61401,14.01748 -1.779,19.02849 -34.865005,49.37193 -14.92401,115.64345 -42.743005,167.61317 -5.139,9.28978 -11.936,17.61986 -16.403,27.28575 -6.79,14.69286 -7.225,35.74551 8.173,45.50318 21.687,11.64016 33.789,-11.40672 44.445005,22.00238 53.21799,116.49042 160.217,123.05074 261.79299,62.31698 8.788,-4.88831 17.757,-10.4131 24.39301,-18.09274 15.06299,-16.95146 13.28899,-40.78945 13.62199,-61.95783 0.18601,-12.40533 0.21701,-24.81266 0.096,-37.21999 -0.474,-50.25781 -17.131,-119.97389 -23.601,-169.8177 z"
           id="Skin"
           fill="#ffffff"
           style="fill-rule:evenodd;stroke:none;stroke-width:1" />
        <path
           d="m 169.0666,33.5077 c 61.33,-27.82 130.891,-38.37 197.791,-31.45 33.02068,3.4102034 65.60648,10.726551 96.6174,22.611199 l 2.71826,1.050485 c 7.6552,2.946326 15.90711,5.870874 21.72434,11.868316 6.771,6.97 8.67,17.51 3.83,26.12 -3.76,6.69 -10.52,11.489 -17.73,14.05 2.54,2.08 4.95,4.4 7.21,6.99 3.81,4.34 4.1,10.529 0,14.81 -7.9,8.25 -18.15,14.219 -29.19,17.08 1.24,5.99 0.57,12.62 -2.09,18.59 -7.6329,17.1369 -29.13422,19.17928 -45.68014,18.16176 l -0.49986,-0.0318 -0.92,10.53 c -0.49,5.61 -3.85,9.96 -9.55,10.82 -0.2,0.03 -0.401,0.05 -0.6,0.069 9.02,32.621 14.47,66.25 19.5,99.681 2.628,17.451 4.9806,34.9425 7.23276,52.44534 l 0.74724,5.83466 c 2.4,18.87 5.4,37.93 6.44,56.94 0.93,17.25 -2.36,33.72 -12.99,47.64 -9.54,12.48 -22.55,21.83 -36.54,28.77 -31.61,15.689 -64.88,27.37 -99.84,32.79 l -2.33137,0.35874 c -13.49479,2.05978 -27.39881,3.7958 -40.74863,0.0613 -11.729,-3.28 -24.03,-11.74 -21.38,-25.33 0.89,-4.59 7.31,-4.79 9.51,-1.24 l 0.50783,0.81344 c 2.63809,4.18572 5.5292,8.07589 10.13317,10.23556 5.389,2.541 11.639,3.25 17.529,3.321 16.45,0.19 33.58,-3.91 49.42,-8.02 29.58,-7.679 59.96,-20.2 84.19,-39.17 10.31,-8.06 18.59,-18.14 21.51,-31.11 3.61,-15.99 0.29,-33.47 -1.35,-49.54 -3.375,-33.15938 -7.3916,-66.25723 -11.62958,-99.31827 l -0.85042,-6.61173 c -3.569,-27.64 -7.319,-55.29 -9.1,-83.09 -0.74,-1.01 -1.24,-2.16 -1.44,-3.42 l -0.279,-1.81 v 0 c -0.241,-1.55 -0.281,-2.97 -0.111,-4.28 0.01,-5.02 0.15,-10.01 0.44,-15.031 0.049,-0.899 0.09,-1.799 0.12,-2.689 -5.22,1.15 -10.48,2.08 -15.76,2.87 -37.12,5.59 -74.82,6.99 -112.24,4.21 -18.67,-1.391 -37.199,-3.78 -55.67,-6.77 -9.401,-1.52 -18.77,-3.2 -28.11,-5.08 -6.75,-1.35 -13.36,-3.18 -20,-4.9 -6.85,9.97 -10.55,22.24 -9.83,34.29 0.81,13.75 9.97,26.22 7.4,40.27 -2.412,13.149 -13.6773,17.226 -24.79931,20.48255 l -4.73034,1.36667 c -3.63914,1.06252 -6.28163,2.08759 -6.94035,6.46078 -1.13,7.51 0.26,15.96 0.55,23.51 0.35,8.93 0.809,17.86 1.02,26.79 0.11,4.62 0.289,9.26 0.28,13.88 -0.01,3.28 -0.5,5.52 -1.77,7.639 0.98,1.231 1.859,2.561 2.64,3.971 0.25,0.46 -0.37,0.949 -0.739,0.57 -0.991,-1.03 -2.042,-1.96 -3.151,-2.791 -0.56,0.691 -1.21,1.391 -1.971,2.141 l -0.059,-0.08 v 0 c -2.38,2.37 -6.16,2.6 -9.111,0.08 l -0.774334,-0.67089 c -2.159905,-1.89333 -3.643976,-3.47014 -4.244666,-6.59911 -0.03,-0.16 -0.061,-0.32 -0.08,-0.48 -5.49,-0.19 -11.07,1.109 -16.01,3.84 -7.83,4.33 -13.34,10.5 -16.599,18.12 1.299,1.52 2.819,2.88 4.589,4.02 0.25,0.17 0.03,0.54 -0.24,0.41 -1.81,-0.85 -3.43,-1.9 -4.88,-3.13 -1.17,3 -1.99,6.22 -2.49,9.63 -1.76,12.04 1.38,26.75 12.26,33.61 4.71,2.97 10.09,4.58 15.67,4.6 2.719,0.009 5.07,-0.45 7.71,-1.1 1.79,-0.44 3.57,-1.08 5.44,-1.08 1.6,0 3.08,0.4 4.45,1.2 l -0.37996,0.0333 c -0.92337,0.0867 -0.74575,0.12573 0.53996,0.12573 4,0.171 6.289,4.231 4.45,7.761 l -0.24129,0.54535 c -0.0508,0.11024 -0.0939,0.20122 -0.12771,0.27365 l -0.14531,0.93635 c -0.0145,0.089 -0.0297,0.18065 -0.0457,0.27465 l -0.0556,0.18963 c -0.01,0.0304 -0.0211,0.0604 -0.0344,0.0904 l 5.99904,9.14832 c 7.35525,11.19137 14.87453,22.33954 23.43096,32.56168 6,7.17 12.36,14.2 19.08,20.71 6.04,5.85 13.28,8.67 20.12,13.27 3.651,2.44 4.72,7.55 1.401,10.84 -9.741,9.67 -23.531,1.99 -31.521,-5.87 -7.56,-7.45 -14.09,-16.41 -19.72,-25.38 -9.99,-15.95 -17.94,-32.91 -21.42,-51.32 -1.45,1.33 -3.3,2.16 -5.17,2.81 -3.75,1.3 -7.88,1.84 -11.84,1.98 -7.59,0.25 -15.19,-1.59 -22.02,-4.85 -27.79,-13.25 -31.87,-52.93 -14.88,-76.33 -2.290909,-6.64364 -3.570434,-13.85219 -4.96054,-19.99925 l -0.632426,-2.74784 C 37.999976,258.64779 33.2818,226.33292 45.7376,196.2577 c 1.6,-3.88 3.4,-7.66 5.53,-11.28 1.71,-2.91 4.65,-6.01 5.46,-9.32 1.8,-7.27 -9.31,-14.91 -12.55,-20.68 -3.81,-6.77 -4.35,-14.76 0.84,-20.951 0.66,-0.779 1.379,-1.5 2.16,-2.129 -4.92,-8.92 -5.15,-20.14 1.33,-28.94 4.26,-5.8 10.76,-9.86 17.86,-11.09 4.34,-0.75 9.56,-0.47 14.33,0.87 26.119,-24.25 55.92,-44.51 88.369,-59.23 z M 68.7671,336.9378 c 6.971,-6.15 14.671,-9.37 24.171,-8.56 9.55,0.819 21.05,4.77 26.659,12.96 4.431,6.47 -4.599,15.96 -11.099,11.1 -5.92,-4.43 -9.871,-9.43 -17.22,-11.81 -6.601,-2.13 -14.771,-3.5 -21.681,-2.28 -0.76,0.13 -1.519,-0.81 -0.83,-1.41 z"
           id="Ink"
           fill="#000000"
           style="fill-rule:evenodd;stroke:none;stroke-width:1;fill:#1d40ba;fill-opacity:1" />
      </g>
      <g
         id="Face"
         transform="translate(491.000000, 669.000000) scale(1 1)"
         fill="#000"
         style="fill:#1d40ba;fill-opacity:1">
        <g
           id="Face/Smile"
           stroke="none"
           stroke-width="1"
           fill="none"
           fill-rule="evenodd"
           style="fill:#1d40ba;fill-opacity:1">
          <path
             d="M146.586567,240.926554 C139.864291,238.184203 133.866322,233.609781 129.481228,227.766254 C127.956691,225.734803 127.561405,223.589624 127.881219,221.627583 C128.240828,219.421406 129.546036,217.4219 131.326046,216.080693 C133.111571,214.735331 135.345035,214.071832 137.504329,214.410065 C139.380629,214.703969 141.248396,215.731287 142.726594,217.861908 L143.035427,218.287981 C145.642441,221.814933 149.039621,224.708755 152.91047,226.573991 C156.641339,228.371775 160.813939,229.21087 165.131898,228.722919 C173.355732,227.793938 179.024012,223.346401 185.048774,217.30672 C185.795561,216.544195 186.542826,215.757766 187.293714,214.958678 C187.767915,214.234308 188.425986,213.768756 189.156624,213.524488 C189.967867,213.253272 190.885573,213.268617 191.726122,213.56195 C192.536835,213.844871 193.261572,214.380994 193.747527,215.094538 C194.209389,215.772704 194.47125,216.610486 194.386283,217.574143 C193.834826,223.833283 190.562474,229.419299 185.914235,233.805502 C180.751772,238.67694 173.908551,242.047034 167.465957,243.229031 C160.36811,244.531047 153.135593,243.598228 146.586567,240.926554 L146.586567,240.926554 Z M170.814304,144.367155 C178.365682,148.9572 189.871664,159.660291 181.748119,171.039573 C172.185929,181.073062 158.418535,169.568982 151.634201,164.366134 C145.343449,160.333898 138.275437,170.704507 144.112,175.412823 C193.135736,211.708059 213.030606,145.567387 174.633685,138.970386 C170.406047,138.243425 168.835891,142.947174 170.814304,144.367155 Z M82.9633,102.1464 C83.7976284,91.7901242 99.5703,89.4384 101.1393,99.6864 C102.5443,108.8664 100.8903,117.2994 96.7553,125.5644 C92.8043,133.4604 82.8737826,129.776544 82.1227826,122.586544 C81.1160984,112.948648 82.4443,108.588596 82.9633,102.1464 Z M203.027,97.5615 C205.226,94.6815 208.401,92.7155 212.205,93.8265 C224.09,97.2995 220.587,114.1725 216.413,122.3855 C214.145,126.8455 206.814,127.9765 203.501,124.0495 C198.101,117.6455 195.515,104.8565 202.38,98.5485 C202.566,98.2225 202.773,97.8935 203.027,97.5615 Z M96.5879,56.8305 L98.465271,56.501905 C104.27307,55.49746 111.4944,54.5323 115.6029,59.2015 C117.7819,61.6775 118.5319,66.2795 115.6029,68.6495 C110.4509,72.8195 104.7549,71.2035 98.5809,71.5565 C93.4929,71.8485 88.6029,72.6905 83.7019,74.0915 C72.9499,77.1645 64.1889,82.7745 55.0059,88.9345 C53.8009,89.7425 52.5709,88.2015 53.1459,87.0745 C58.4469,76.6915 68.7199,68.1625 79.0099,62.9635 C84.5019,60.1885 90.5119,57.8865 96.5879,56.8305 Z M192.192876,52.1793876 L193.629806,52.4734684 C209.267042,55.742077 229.583473,62.2713911 236.988459,77.6308459 C237.270623,79.8027272 236.97249,80.2682047 236.730054,80.5723213 L236.649336,80.6735209 C236.449568,80.9332186 236.290169,81.2912104 235.348782,81.5868073 C235.087547,81.5245653 234.823712,81.4586426 234.557082,81.3887687 C231.162766,80.499243 228.477205,79.2737961 225.877298,78.0022488 L223.058339,76.6134493 C219.787784,75.0098309 216.488352,73.4645766 212.991711,72.3238115 C205.52958,69.8898666 197.854137,68.1753043 190.059777,67.259767 C188.37041,67.0615005 186.743655,66.4913394 185.460262,65.5141761 C184.242065,64.5866523 183.311441,63.3024737 182.887128,61.5955207 C182.33722,59.3864508 182.495251,57.7140037 183.680513,55.7210991 C184.571756,54.2244705 185.846982,53.1871113 187.311265,52.5914244 C188.804038,51.9841473 190.503545,51.840982 192.192876,52.1793876 Z"
             id="path1"
             fill="#000"
             style="fill:#1d40ba;fill-opacity:1" />
        </g>
      </g>
      <g
         id="Beard"
         transform="translate(454.999934, 820.999659) scale(1 1)"
         fill="#000">
        <g
           id="Beard/None"
           stroke="none"
           stroke-width="1"
           fill="none"
           fill-rule="evenodd"
           fill-opacity="0" />
      </g>
      <g
         id="Mask"
         transform="translate(360.000000, 783.000000) scale(1 1)"
         fill="#000">
        <g
           id="Mask/None"
           stroke="none"
           stroke-width="1"
           fill="none"
           fill-rule="evenodd"
           fill-opacity="0" />
      </g>
      <g
         id="Accessories"
         transform="translate(379.000000, 724.000000) scale(1 1)"
         fill="#000">
        <g
           id="Accessories/None"
           stroke="none"
           stroke-width="1"
           fill="none"
           fill-rule="evenodd"
           fill-opacity="0" />
      </g>
    </g>
  </g>
</svg>
