<?xml version="1.0" encoding="UTF-8" standalone="no"?><!DOCTYPE svg PUBLIC "-//W3C//DTD SVG 1.1//EN" "http://www.w3.org/Graphics/SVG/1.1/DTD/svg11.dtd"><svg width="100%" height="100%" viewBox="0 0 130 152" version="1.1" xmlns="http://www.w3.org/2000/svg" xmlns:xlink="http://www.w3.org/1999/xlink" xml:space="preserve" xmlns:serif="http://www.serif.com/" style="fill-rule:evenodd;clip-rule:evenodd;stroke-linejoin:round;stroke-miterlimit:2;"><g id="Layer1"><path d="M84.84,58.816c0.832,-3.475 2.738,-10.993 5.295,-18.368c6.286,-18.133 10.37,-17.985 10.411,-17.976c0.13,0.011 0.298,0.193 0.415,0.343c3.58,4.6 2.023,26.095 -0.321,41.012c-5.311,-2.109 -10.581,-3.779 -15.8,-5.011Zm-22.778,-2.572c0.76,-4.796 2.48,-14.9 4.937,-24.87c6.195,-25.134 11.061,-25.373 11.155,-25.373l0.001,-0c0.068,0.003 0.228,0.008 0.545,0.39c4.6,5.537 2.585,33.42 0.092,51.173c-5.647,-0.971 -11.225,-1.398 -16.73,-1.32Zm65.487,-18.662c-1.132,-1.958 -2.857,-3.181 -4.989,-3.537c-5.57,-0.93 -10.134,3.432 -13.645,9.239c0.526,-9.871 0.079,-19.915 -3.219,-24.154c-1.551,-1.993 -3.391,-2.535 -4.661,-2.638c-4.888,-0.385 -9.307,4.257 -13.711,14.532c0.477,-11.955 -0.179,-23.857 -4.009,-28.467c-1.681,-2.023 -3.617,-2.504 -4.946,-2.552c-6.661,-0.236 -11.906,8.769 -17.007,29.177c-0.817,-5.89 -2.305,-11.103 -4.901,-13.885c-1.604,-1.719 -3.571,-2.6 -5.788,-2.569c-4.852,0.086 -10.61,5.167 -16.526,42.188c-1.92,12.015 -3.311,24.108 -4.106,31.742c-6.764,-9.738 -13.894,-18.745 -20.915,-19.232c-2.556,-0.172 -4.879,0.796 -6.716,2.814c-3.043,3.341 -5.106,11.412 6.045,44.454c5.976,17.707 13.096,34.48 13.167,34.647c0.487,1.141 1.596,1.826 2.762,1.826c0.393,-0 0.791,-0.077 1.174,-0.24c1.524,-0.65 2.234,-2.411 1.586,-3.936c-0.07,-0.165 -7.112,-16.753 -13.014,-34.245c-11.118,-32.953 -7.71,-37.998 -7.285,-38.466c0.754,-0.827 1.365,-0.902 1.866,-0.869c5.252,0.364 14.055,13.226 17.814,18.718c1.907,2.787 2.858,4.16 3.634,4.916c0.032,0.032 0.072,0.055 0.106,0.085c0.075,0.067 0.152,0.128 0.234,0.188c0.075,0.054 0.151,0.105 0.231,0.152c0.086,0.051 0.174,0.096 0.265,0.139c0.086,0.04 0.173,0.075 0.263,0.107c0.091,0.032 0.183,0.06 0.278,0.083c0.1,0.025 0.201,0.043 0.304,0.057c0.052,0.008 0.102,0.025 0.155,0.03c0.04,0.003 0.078,-0.004 0.117,-0.003c0.047,0.002 0.093,0.014 0.14,0.014l0.003,-0l2.034,-0.002c0.912,0.006 22.391,0.441 27.552,23.668c0.36,1.618 1.966,2.638 3.579,2.278c1.618,-0.36 2.638,-1.962 2.279,-3.579c-5.452,-24.532 -26.784,-27.852 -32.161,-28.298c0.594,-6.164 2.072,-20.381 4.316,-34.726c5.688,-36.36 10.793,-38.451 10.927,-38.511c0.301,-0.017 0.737,0.067 1.294,0.664c4.425,4.739 4.657,24.526 3.739,37.162c-2.275,0.2 -4.538,0.483 -6.783,0.867c-1.633,0.279 -2.731,1.83 -2.452,3.463c0.28,1.633 1.831,2.73 3.463,2.451c18.304,-3.13 36.98,0.107 57.092,9.906c0.423,0.206 0.87,0.304 1.312,0.304c1.111,-0 2.179,-0.621 2.699,-1.688c0.725,-1.489 0.106,-3.285 -1.384,-4.01c-1.131,-0.552 -2.261,-1.074 -3.389,-1.586c2.865,-11.403 9.525,-27.256 15.202,-26.297c0.246,0.041 0.491,0.12 0.78,0.621c2.987,5.168 -2.452,25.653 -7.27,38.549c-0.102,0.274 -0.164,0.563 -0.183,0.857l-4.38,67.983c-0.107,1.654 1.147,3.081 2.801,3.187c0.066,0.004 0.131,0.006 0.196,0.006c1.568,-0 2.889,-1.22 2.991,-2.807l4.352,-67.544c2.403,-6.496 12.038,-33.977 6.688,-43.233Z" style="fill:#1d40ba;fill-rule:nonzero;"/></g></svg>