<?xml version="1.0" encoding="UTF-8" standalone="no"?><!DOCTYPE svg PUBLIC "-//W3C//DTD SVG 1.1//EN" "http://www.w3.org/Graphics/SVG/1.1/DTD/svg11.dtd"><svg width="100%" height="100%" viewBox="0 0 153 134" version="1.1" xmlns="http://www.w3.org/2000/svg" xmlns:xlink="http://www.w3.org/1999/xlink" xml:space="preserve" xmlns:serif="http://www.serif.com/" style="fill-rule:evenodd;clip-rule:evenodd;stroke-linejoin:round;stroke-miterlimit:2;"><path d="M68.103,51.758c0.085,0.432 0.257,0.854 0.542,1.229c2.252,2.969 6.271,10.218 3.544,12.422c-2.139,1.729 -6.153,1.347 -10.401,-0.506c-0.195,-0.117 -0.401,-0.207 -0.614,-0.276c-3.319,-1.551 -6.733,-3.972 -9.473,-6.987c-2.228,-2.452 -6.92,-8.654 -2.375,-13.292c2.794,-2.848 9.128,-2.315 11.327,-1.873c0.267,0.056 0.531,0.062 0.791,0.047c0.525,1.129 1.153,2.272 1.907,3.424c1.349,2.062 2.966,4.026 4.752,5.812Zm-6.065,32.315c-1.438,1.964 -4.653,1.785 -6.444,1.505c-7.435,-1.17 -16.213,-7.556 -18.062,-13.141c-0.751,-2.269 -0.313,-4.128 1.378,-5.853c2.793,-2.85 9.128,-2.317 11.327,-1.874c0.06,0.013 0.119,0.011 0.179,0.02c2.42,2.08 5.119,3.857 7.887,5.187c2.496,3.626 6.127,10.886 3.735,14.156Zm87.293,-4.52c0.508,-0 1.023,-0.13 1.496,-0.402c1.434,-0.828 1.927,-2.662 1.099,-4.098l-15.069,-26.133c3.447,-10.336 12.021,-38.269 6.748,-45.773c-1.024,-1.458 -3.53,-3.786 -8.776,-2.982c-10.934,1.669 -26.527,15.497 -34.338,35.476c-7.365,-6.256 -24.298,-18.543 -35.711,-10.505c-3.804,2.677 -5.51,6.615 -5.105,11.137c-3.549,-0.38 -10.404,-0.44 -14.634,3.876c-4.761,4.857 -4.799,11.616 -0.351,18.245c-3.367,0.208 -7.285,1.155 -10.065,3.99c-2.444,2.493 -3.609,5.509 -3.42,8.716c-7.962,-3.98 -19.874,-8.862 -26.3,-6.296c-2.272,0.909 -3.827,2.633 -4.496,4.984c-3.189,11.206 12.234,24.97 47.148,42.079c24.676,12.092 50.483,21.506 50.74,21.599c0.338,0.123 0.684,0.182 1.025,0.182c1.225,-0 2.377,-0.758 2.819,-1.977c0.567,-1.556 -0.237,-3.278 -1.795,-3.843c-41.475,-15.075 -98.11,-42.537 -94.166,-56.398c0.157,-0.554 0.416,-0.84 0.953,-1.055c4.682,-1.877 18.926,4.388 27.873,9.582c4.72,5.949 12.929,10.49 19.656,11.547c1.046,0.165 2.051,0.246 3.011,0.246c4.013,-0 7.223,-1.422 9.206,-4.134c3.332,-4.553 1.822,-10.597 -0.282,-15.208c0.616,0.064 1.227,0.109 1.825,0.109c2.84,-0 5.447,-0.75 7.54,-2.442c3.637,-2.941 3.65,-7.212 2.488,-11.125c4.588,1.946 9.203,2.283 12.843,0.074c8.761,-5.316 1.155,-19.3 0.259,-20.877c-0.818,-1.44 -2.649,-1.944 -4.091,-1.126c-1.44,0.818 -1.944,2.65 -1.126,4.091c1.569,2.76 4.919,10.917 1.844,12.783c-4.333,2.625 -14.515,-3.145 -19.807,-11.234c-2.127,-3.252 -4.975,-9.216 -0.138,-12.619c8.551,-6.014 25.639,7.332 31.5,12.983c0.745,0.72 1.809,1.005 2.816,0.75c1.005,-0.253 1.809,-1.007 2.124,-1.994c6.786,-21.226 22.399,-34.362 31.06,-35.684c1.48,-0.228 2.583,-0.039 2.961,0.5c2.585,3.678 -2.116,24.501 -7.954,41.685c-0.278,0.817 -0.19,1.716 0.242,2.464l15.746,27.305c0.556,0.963 1.565,1.502 2.602,1.502Z" style="fill:#fff;fill-rule:nonzero;"/></svg>