<svg viewBox="151.9783783783784 124.17299999999986 870.4216216216216 1303.8165000000001" xmlns="http://www.w3.org/2000/svg" overflow="visible" xmlns:xlink="http://www.w3.org/1999/xlink" width="805.9459459459459px" height="1207.2375000000002px"><rect id="Blush Background Color" fill="#ececec" x="151.9783783783784" y="124.17299999999986" width="870.4216216216216" height="1303.8165000000001"/><g id="Master/Pose/Bust" stroke="none" stroke-width="1" fill="none" fill-rule="evenodd"><g id="Body" transform="translate(147.000000, 639.000000) scale(1 1)"><g id="Body/Tee Arms Crossed" stroke="none" stroke-width="1" fill="none" fill-rule="evenodd"><path d="M659.933269,217.976991 C651.249269,214.880991 642.879269,211.304991 635.253269,206.044991 C613.270269,189.681991 598.936269,165.056991 585.392269,141.725991 C566.314269,107.792991 552.723269,71.6349913 543.328269,33.9149913 C539.291269,17.7089913 537.920269,-1.08100866 528.748269,-15.4490087 C507.956269,-45.5340087 446.987269,-41.6360087 414.612269,-36.3550087 C392.932269,-32.5190087 388.451269,-8.25700866 383.527269,9.69599134 C379.427269,24.6129913 376.743269,39.6989913 374.490269,54.9869913 C369.130269,58.5109913 363.079269,61.3729913 357.311269,63.8659913 C294.452269,83.1409913 283.404269,118.874991 259.395269,174.072991 C218.844269,254.301991 108.809269,285.714991 92.1882694,380.663991 C81.4792694,443.348991 111.932269,502.321991 143.329269,554.433991 C172.569269,611.354991 213.390269,638.674991 278.399269,625.226991 C339.374269,611.548991 397.974269,588.667991 457.876269,570.986991 C486.889269,563.853991 515.856269,545.299991 546.375269,551.768991 C609.260269,565.891991 673.871269,572.531991 738.317269,570.698991 C828.801269,574.357991 828.787269,487.512991 819.500269,420.259991 C812.995269,315.598991 760.205269,248.394991 659.933269,217.976991 L659.933269,217.976991 Z" id="✋-Skin" fill="#ffffff"/><path d="M665.982669,369.421691 C673.543669,374.421691 679.902669,382.002691 685.007669,389.980691 C663.695669,387.763691 642.420669,385.207691 621.192669,382.297691 C623.971669,380.521691 626.776669,378.784691 629.645669,377.144691 C640.112669,371.246691 654.294669,361.693691 665.982669,369.421691 Z M311.897669,432.419691 C307.992669,430.890691 306.481669,424.936691 304.959669,421.523691 C300.187669,410.820691 295.832669,399.935691 291.301669,389.128691 C308.505669,384.224691 325.235669,378.783691 343.057669,376.169691 C362.220669,373.361691 381.666669,372.681691 401.006669,373.312691 C440.180669,374.590691 478.990669,380.992691 517.504669,387.857691 C555.973669,394.714691 594.440669,401.302691 633.178669,406.472691 C671.131669,411.537691 709.204669,415.244691 747.348669,418.498691 C754.759669,419.131691 767.116669,421.796691 773.076669,415.964691 C777.795669,411.345691 777.948669,402.826691 772.043669,399.071691 C768.365669,396.730691 763.036669,396.696691 758.834669,396.156691 C753.542669,395.475691 748.229669,395.022691 742.905669,394.669691 C740.736669,394.526691 738.567669,394.394691 736.397669,394.262691 C753.814669,387.695691 772.005669,384.114691 790.887669,385.112691 C791.955669,391.599691 796.766669,398.273691 799.399669,403.623691 C803.997669,412.963691 807.581669,422.416691 809.934669,432.572691 C814.852669,453.800691 815.066669,475.832691 813.677669,497.483691 C812.401669,515.535691 809.660669,535.503691 795.500669,548.288691 C784.779669,557.968691 769.653669,561.552691 755.620669,562.679691 C739.310669,563.989691 722.748669,562.590691 706.575669,560.404691 C683.891669,557.337691 661.101669,553.281691 638.863669,547.845691 C595.792669,537.317691 554.508669,520.565691 516.419669,497.853691 C497.844669,486.778691 480.120669,474.318691 461.290669,463.664691 C442.103669,452.806691 421.687669,444.383691 400.249669,439.153691 C376.258669,433.300691 351.178669,430.802691 326.520669,432.246691 C322.241669,432.496691 316.059669,434.048691 311.897669,432.419691 Z M284.095669,421.551691 C286.616669,429.732691 288.545669,439.073691 293.926669,445.947691 C299.256669,452.759691 307.297669,455.163691 315.627669,455.769691 C325.671669,456.498691 335.833669,456.031691 345.899669,456.405691 C366.544669,457.172691 386.906669,460.525691 406.642669,466.676691 C425.034669,472.409691 442.107669,481.351691 458.553669,491.271691 C473.761669,500.445691 488.523669,510.294691 503.736669,519.440691 C499.687669,521.296691 495.684669,523.304691 491.659669,525.052691 C483.217669,528.718691 474.723669,532.255691 466.191669,535.704691 C449.366669,542.504691 432.470669,549.139691 415.401669,555.303691 C380.983669,567.732691 345.999669,578.591691 310.594669,587.841691 C293.708669,592.253691 276.582669,597.406691 259.039669,598.140691 C243.483669,598.790691 229.074669,594.393691 216.528669,585.144691 C190.506669,565.960691 169.803669,538.270691 153.067669,510.957691 C143.124669,494.730691 134.447669,477.680691 127.270669,460.051691 C123.640669,451.136691 120.348669,442.084691 117.385669,432.926691 C115.995669,428.626691 114.677669,424.302691 113.429669,419.958691 C112.880669,418.048691 112.354669,416.132691 111.833669,414.214691 C138.442669,406.094691 165.367669,398.764691 192.924669,394.695691 C207.637669,392.522691 222.546669,391.422691 237.420669,391.582691 C244.803669,391.661691 252.182669,392.060691 259.526669,392.822691 C263.479669,393.232691 267.416669,393.760691 271.336669,394.414691 C272.956669,394.683691 274.621669,395.081691 276.291669,395.374691 C278.842669,404.115691 281.414669,412.849691 284.095669,421.551691 Z M834.137669,386.797691 C835.571669,383.896691 836.176669,381.042691 836.690669,377.884691 C837.082669,375.475691 838.122669,372.084691 837.211669,368.956691 C836.191669,365.453691 833.412669,362.320691 831.417669,359.332691 C829.214669,356.030691 827.013669,352.726691 824.815669,349.420691 C820.418669,342.809691 816.031669,336.192691 811.651669,329.570691 C793.764669,302.529691 775.999669,275.410691 758.206669,248.308691 C742.416669,224.257691 726.892669,199.990691 710.621669,176.262691 C696.708669,155.972691 681.543669,136.017691 662.499669,120.237691 C638.420669,100.285691 609.748669,90.8866913 579.799669,83.5526913 C576.528669,80.1576913 572.159669,78.3036913 567.489669,78.6796913 C560.891669,71.1966913 555.647669,65.9696913 553.270669,56.4536913 C552.131669,51.8956913 552.488669,39.0886913 548.049669,36.3916913 C542.776669,33.1876913 540.022804,37.4283269 538.568669,42.2076913 C533.703669,58.1976913 539.287669,79.6956913 552.137669,95.7126913 C546.723669,114.423691 539.545669,141.015691 526.740669,156.005691 C513.028669,172.056691 494.065669,177.052691 473.605669,177.381691 C434.587669,178.009691 395.610669,163.508691 365.849669,138.376691 C356.803669,130.738691 348.402669,122.207691 340.801669,113.134691 C335.100669,106.327691 328.356669,95.8226913 323.896669,87.8826913 C323.896669,84.7884677 320.243364,81.5526913 357.436669,79.0526913 C394.629975,76.5526913 397.450669,25.6256913 398.277669,18.6946913 C398.949669,13.0666913 401.807669,4.33069134 397.841669,-0.25830866 C396.158669,-2.20730866 392.704669,-2.52130866 390.570669,-1.19730866 C386.546669,1.30169134 385.224669,7.69169134 383.959669,12.0306913 C382.187669,18.1096913 376.394669,55.8366913 365.417669,60.2046913 C360.278669,62.2496913 354.384669,62.2876913 348.948669,62.6656913 C342.235669,63.1346913 335.508669,63.4776913 328.822669,64.2586913 C326.356669,64.5466913 323.666669,65.3446913 321.233669,65.3676913 C319.650669,65.3826913 318.017669,64.6136913 316.487669,64.0736913 C311.323669,62.2486913 306.163669,63.6176913 300.843669,64.3326913 C253.807669,70.6536913 205.376669,85.0806913 165.256669,111.039691 C129.894669,133.919691 104.981669,166.824691 88.5426694,205.296691 C71.7696694,244.558691 62.1556694,287.015691 54.0986694,328.811691 C51.3996694,342.815691 49.0426694,356.884691 47.0176694,371.001691 C45.0606694,384.642691 42.6126694,398.588691 42.0266694,412.367691 C41.7946694,417.819691 43.0976694,422.884691 45.1026694,427.864691 C47.3606694,433.469691 52.6976694,435.679691 57.8166694,438.296691 C69.0536694,444.044691 80.9076694,448.502691 93.1206694,451.659691 C100.581669,465.232691 106.860669,479.335691 111.906669,493.972691 C110.034669,497.681691 109.995669,503.220691 109.635669,506.825691 C108.742669,515.802691 108.360669,524.826691 108.280669,533.844691 C108.119669,551.919691 109.206669,569.976691 110.058669,588.023691 C110.922669,606.327691 113.794669,678.546691 114.262669,687.365691 C114.626669,694.216691 114.136669,703.799691 117.745669,709.881691 C123.291669,719.230691 136.979669,718.915691 143.319669,711.335691 C300.843669,745.199492 596.944369,734.999691 716.198669,717.961691 C731.714856,715.744876 726.842669,718.203691 730.788669,714.283691 C733.749669,711.339691 736.269669,706.298691 737.088669,702.247691 C738.182669,696.839691 736.416669,691.945691 733.320669,687.569691 C730.065669,682.969691 729.472669,675.519691 728.263669,670.049691 C725.404669,657.118691 723.983669,600.328691 722.647669,594.035691 C722.231669,592.074691 721.828669,590.001691 721.342669,587.927691 C743.217669,589.999691 766.010669,589.999691 786.821669,582.683691 C798.622669,578.534691 809.628669,572.017691 818.100669,562.712691 C828.358669,551.445691 834.065669,537.261691 837.000669,522.456691 C840.787669,503.365691 841.591669,483.590691 840.847669,464.183691 C839.813669,441.247691 836.009669,417.988691 826.567669,396.929691 C829.674669,394.044691 832.278669,390.563691 834.137669,386.797691 Z" id="🖍-Ink" fill="#000"/></g></g><g id="Head" transform="translate(372.000000, 180.000000) scale(0.9978902953586498 1)"><g id="Head/Pomp" stroke="none" stroke-width="1" fill="none" fill-rule="evenodd"><path d="M385.414655,173.221564 C381.553655,149.862425 394.225655,145.015818 385.414655,122.81092 C365.832655,81.6673118 312.467655,83.4400723 273.307655,80.2766375 C229.629655,78.6026407 185.421655,84.3688512 145.155655,101.874987 C135.537655,106.055988 126.286655,110.973229 117.418655,116.559869 C109.750655,121.391315 110.804655,130.577347 115.639655,135.588364 C80.7746553,184.960294 100.715655,251.231811 72.8966553,303.201529 C67.7576553,312.491313 60.9606553,320.821392 56.4936553,330.487277 C49.7036553,345.18014 49.2686553,366.232794 64.6666553,375.99046 C86.3536553,387.630623 98.4556553,364.583738 109.111655,397.992843 C162.329655,514.483264 269.328655,521.043576 370.904655,460.309816 C379.692655,455.421506 388.661655,449.896718 395.297655,442.217084 C410.360655,425.265622 408.586655,401.427629 408.919655,380.259251 C409.105655,367.853918 409.136655,355.446589 409.015655,343.03926 C408.541655,292.781448 391.884655,223.065366 385.414655,173.221564 Z" id="✋-Skin" fill="#ffffff"/><path d="M169.0666,33.5077 C230.3966,5.6877 299.9576,-4.8623 366.8576,2.0577 C399.878278,5.46790339 432.464081,12.784251 463.474997,24.6688994 L466.193261,25.7193843 C473.848458,28.6657097 482.100367,31.5902581 487.9176,37.5877 C494.6886,44.5577 496.5876,55.0977 491.7476,63.7077 C487.9876,70.3977 481.2276,75.1967 474.0176,77.7577 C476.5576,79.8377 478.9676,82.1577 481.2276,84.7477 C485.0376,89.0877 485.3276,95.2767 481.2276,99.5577 C473.3276,107.8077 463.0776,113.7767 452.0376,116.6377 C453.2776,122.6277 452.6076,129.2577 449.9476,135.2277 C442.3147,152.3646 420.813385,154.40698 404.267456,153.389458 L403.7676,153.3577 L402.8476,163.8877 C402.3576,169.4977 398.9976,173.8477 393.2976,174.7077 C393.0976,174.7377 392.8966,174.7577 392.6976,174.7767 C401.7176,207.3977 407.1676,241.0267 412.1976,274.4577 C414.8256,291.9087 417.1782,309.4002 419.43036,326.90304 L420.1776,332.7377 C422.5776,351.6077 425.5776,370.6677 426.6176,389.6777 C427.5476,406.9277 424.2576,423.3977 413.6276,437.3177 C404.0876,449.7977 391.0776,459.1477 377.0876,466.0877 C345.4776,481.7767 312.2076,493.4577 277.2476,498.8777 L274.916235,499.236444 C261.421445,501.296219 247.517418,503.032245 234.1676,499.2977 C222.4386,496.0177 210.1376,487.5577 212.7876,473.9677 C213.6776,469.3777 220.0976,469.1777 222.2976,472.7277 L222.80543,473.541144 C225.443517,477.726861 228.33463,481.617033 232.9386,483.7767 C238.3276,486.3177 244.5776,487.0267 250.4676,487.0977 C266.9176,487.2877 284.0476,483.1877 299.8876,479.0777 C329.4676,471.3987 359.8476,458.8777 384.0776,439.9077 C394.3876,431.8477 402.6676,421.7677 405.5876,408.7977 C409.1976,392.8077 405.8776,375.3277 404.2376,359.2577 C400.8626,326.098325 396.845998,293.000473 392.608022,259.939426 L391.7576,253.3277 C388.1886,225.6877 384.4386,198.0377 382.6576,170.2377 C381.9176,169.2277 381.4176,168.0777 381.2176,166.8177 L380.9386,165.0077 L380.9386,165.0077 C380.6976,163.4577 380.6576,162.0377 380.8276,160.7277 C380.8376,155.7077 380.9776,150.7177 381.2676,145.6967 C381.3166,144.7977 381.3576,143.8977 381.3876,143.0077 C376.1676,144.1577 370.9076,145.0877 365.6276,145.8777 C328.5076,151.4677 290.8076,152.8677 253.3876,150.0877 C234.7176,148.6967 216.1886,146.3077 197.7176,143.3177 C188.3166,141.7977 178.9476,140.1177 169.6076,138.2377 C162.8576,136.8877 156.2476,135.0577 149.6076,133.3377 C142.7576,143.3077 139.0576,155.5777 139.7776,167.6277 C140.5876,181.3777 149.7476,193.8477 147.1776,207.8977 C144.7656,221.0467 133.5003,225.1237 122.378289,228.380251 L117.647948,229.746916 C114.008809,230.809438 111.366323,231.834509 110.7076,236.2077 C109.5776,243.7177 110.9676,252.1677 111.2576,259.7177 C111.6076,268.6477 112.0666,277.5777 112.2776,286.5077 C112.3876,291.1277 112.5666,295.7677 112.5576,300.3877 C112.5476,303.6677 112.0576,305.9077 110.7876,308.0267 C111.7676,309.2577 112.6466,310.5877 113.4276,311.9977 C113.6776,312.4577 113.0576,312.9467 112.6886,312.5677 C111.6976,311.5377 110.6466,310.6077 109.5376,309.7767 C108.9776,310.4677 108.3276,311.1677 107.5666,311.9177 L107.5076,311.8377 L107.5076,311.8377 C105.1276,314.2077 101.3476,314.4377 98.3966,311.9177 L97.622266,311.246807 C95.462361,309.353484 93.9782897,307.776666 93.3776,304.6477 C93.3476,304.4877 93.3166,304.3277 93.2976,304.1677 C87.8076,303.9777 82.2276,305.2767 77.2876,308.0077 C69.4576,312.3377 63.9476,318.5077 60.6886,326.1277 C61.9876,327.6477 63.5076,329.0077 65.2776,330.1477 C65.5276,330.3177 65.3076,330.6877 65.0376,330.5577 C63.2276,329.7077 61.6076,328.6577 60.1576,327.4277 C58.9876,330.4277 58.1676,333.6477 57.6676,337.0577 C55.9076,349.0977 59.0476,363.8077 69.9276,370.6677 C74.6376,373.6377 80.0176,375.2477 85.5976,375.2677 C88.3166,375.2767 90.6676,374.8177 93.3076,374.1677 C95.0976,373.7277 96.8776,373.0877 98.7476,373.0877 C100.3476,373.0877 101.8276,373.4877 103.1976,374.2877 L102.817638,374.320971 C101.894271,374.407638 102.071886,374.4467 103.3576,374.4467 C107.3576,374.6177 109.6466,378.6777 107.8076,382.2077 L107.566306,382.753053 C107.515498,382.863292 107.472457,382.954271 107.4386,383.0267 L107.293288,383.963052 C107.2788,384.0521 107.2636,384.1437 107.2476,384.2377 L107.192044,384.42733 C107.182044,384.4577 107.170933,384.4877 107.1576,384.5177 L113.156638,393.666016 C120.511886,404.857394 128.031171,416.005557 136.5876,426.2277 C142.5876,433.3977 148.9476,440.4277 155.6676,446.9377 C161.7076,452.7877 168.9476,455.6077 175.7876,460.2077 C179.4386,462.6477 180.5076,467.7577 177.1886,471.0477 C167.4476,480.7177 153.6576,473.0377 145.6676,465.1777 C138.1076,457.7277 131.5776,448.7677 125.9476,439.7977 C115.9576,423.8477 108.0076,406.8877 104.5276,388.4777 C103.0776,389.8077 101.2276,390.6377 99.3576,391.2877 C95.6076,392.5877 91.4776,393.1277 87.5176,393.2677 C79.9276,393.5177 72.3276,391.6777 65.4976,388.4177 C37.7076,375.1677 33.6276,335.4877 50.6176,312.0877 C48.3266909,305.444064 47.0471661,298.23551 45.65706,292.088454 L45.0246343,289.340608 C37.9999759,258.647793 33.2818,226.33292 45.7376,196.2577 C47.3376,192.3777 49.1376,188.5977 51.2676,184.9777 C52.9776,182.0677 55.9176,178.9677 56.7276,175.6577 C58.5276,168.3877 47.4176,160.7477 44.1776,154.9777 C40.3676,148.2077 39.8276,140.2177 45.0176,134.0267 C45.6776,133.2477 46.3966,132.5267 47.1776,131.8977 C42.2576,122.9777 42.0276,111.7577 48.5076,102.9577 C52.7676,97.1577 59.2676,93.0977 66.3676,91.8677 C70.7076,91.1177 75.9276,91.3977 80.6976,92.7377 C106.8166,68.4877 136.6176,48.2277 169.0666,33.5077 Z M68.7671,336.9378 C75.7381,330.7878 83.4381,327.5678 92.9381,328.3778 C102.4881,329.1968 113.9881,333.1478 119.5971,341.3378 C124.0281,347.8078 114.9981,357.2978 108.4981,352.4378 C102.5781,348.0078 98.6271,343.0078 91.2781,340.6278 C84.6771,338.4978 76.5071,337.1278 69.5971,338.3478 C68.8371,338.4778 68.0781,337.5378 68.7671,336.9378 Z" id="🖍-Ink" fill="#000"/></g></g><g id="Face" transform="translate(531.000000, 366.000000) scale(1 1)" fill="#000"><g id="Face/Smile" stroke="none" stroke-width="1" fill="none" fill-rule="evenodd"><path d="M146.586567,240.926554 C139.864291,238.184203 133.866322,233.609781 129.481228,227.766254 C127.956691,225.734803 127.561405,223.589624 127.881219,221.627583 C128.240828,219.421406 129.546036,217.4219 131.326046,216.080693 C133.111571,214.735331 135.345035,214.071832 137.504329,214.410065 C139.380629,214.703969 141.248396,215.731287 142.726594,217.861908 L143.035427,218.287981 C145.642441,221.814933 149.039621,224.708755 152.91047,226.573991 C156.641339,228.371775 160.813939,229.21087 165.131898,228.722919 C173.355732,227.793938 179.024012,223.346401 185.048774,217.30672 C185.795561,216.544195 186.542826,215.757766 187.293714,214.958678 C187.767915,214.234308 188.425986,213.768756 189.156624,213.524488 C189.967867,213.253272 190.885573,213.268617 191.726122,213.56195 C192.536835,213.844871 193.261572,214.380994 193.747527,215.094538 C194.209389,215.772704 194.47125,216.610486 194.386283,217.574143 C193.834826,223.833283 190.562474,229.419299 185.914235,233.805502 C180.751772,238.67694 173.908551,242.047034 167.465957,243.229031 C160.36811,244.531047 153.135593,243.598228 146.586567,240.926554 L146.586567,240.926554 Z M170.814304,144.367155 C178.365682,148.9572 189.871664,159.660291 181.748119,171.039573 C172.185929,181.073062 158.418535,169.568982 151.634201,164.366134 C145.343449,160.333898 138.275437,170.704507 144.112,175.412823 C193.135736,211.708059 213.030606,145.567387 174.633685,138.970386 C170.406047,138.243425 168.835891,142.947174 170.814304,144.367155 Z M82.9633,102.1464 C83.7976284,91.7901242 99.5703,89.4384 101.1393,99.6864 C102.5443,108.8664 100.8903,117.2994 96.7553,125.5644 C92.8043,133.4604 82.8737826,129.776544 82.1227826,122.586544 C81.1160984,112.948648 82.4443,108.588596 82.9633,102.1464 Z M203.027,97.5615 C205.226,94.6815 208.401,92.7155 212.205,93.8265 C224.09,97.2995 220.587,114.1725 216.413,122.3855 C214.145,126.8455 206.814,127.9765 203.501,124.0495 C198.101,117.6455 195.515,104.8565 202.38,98.5485 C202.566,98.2225 202.773,97.8935 203.027,97.5615 Z M96.5879,56.8305 L98.465271,56.501905 C104.27307,55.49746 111.4944,54.5323 115.6029,59.2015 C117.7819,61.6775 118.5319,66.2795 115.6029,68.6495 C110.4509,72.8195 104.7549,71.2035 98.5809,71.5565 C93.4929,71.8485 88.6029,72.6905 83.7019,74.0915 C72.9499,77.1645 64.1889,82.7745 55.0059,88.9345 C53.8009,89.7425 52.5709,88.2015 53.1459,87.0745 C58.4469,76.6915 68.7199,68.1625 79.0099,62.9635 C84.5019,60.1885 90.5119,57.8865 96.5879,56.8305 Z M192.192876,52.1793876 L193.629806,52.4734684 C209.267042,55.742077 229.583473,62.2713911 236.988459,77.6308459 C237.270623,79.8027272 236.97249,80.2682047 236.730054,80.5723213 L236.649336,80.6735209 C236.449568,80.9332186 236.290169,81.2912104 235.348782,81.5868073 C235.087547,81.5245653 234.823712,81.4586426 234.557082,81.3887687 C231.162766,80.499243 228.477205,79.2737961 225.877298,78.0022488 L223.058339,76.6134493 C219.787784,75.0098309 216.488352,73.4645766 212.991711,72.3238115 C205.52958,69.8898666 197.854137,68.1753043 190.059777,67.259767 C188.37041,67.0615005 186.743655,66.4913394 185.460262,65.5141761 C184.242065,64.5866523 183.311441,63.3024737 182.887128,61.5955207 C182.33722,59.3864508 182.495251,57.7140037 183.680513,55.7210991 C184.571756,54.2244705 185.846982,53.1871113 187.311265,52.5914244 C188.804038,51.9841473 190.503545,51.840982 192.192876,52.1793876 Z" id="🖍-Ink" fill="#000"/></g></g><g id="Facial Hair" transform="translate(494.999934, 517.999659) scale(1 1)" fill="#000"><g id="Facial Hair/None" stroke="none" stroke-width="1" fill="none" fill-rule="evenodd" fill-opacity="0"/></g><g id="Mask" transform="translate(400.000000, 480.000000) scale(1 1)" fill="#000"><g id="Mask/None" stroke="none" stroke-width="1" fill="none" fill-rule="evenodd" fill-opacity="0"/></g><g id="Accessories" transform="translate(419.000000, 421.000000) scale(1 1)" fill="#000"><g id="Accessories/None" stroke="none" stroke-width="1" fill="none" fill-rule="evenodd" fill-opacity="0"/></g></g></svg>